<?xml version="1.0" encoding="utf-8"?>
<!-- Generator: Adobe Illustrator 24.0.2, SVG Export Plug-In . SVG Version: 6.00 Build 0)  -->
<svg version="1.1" id="Layer_1" xmlns="http://www.w3.org/2000/svg" xmlns:xlink="http://www.w3.org/1999/xlink" x="0px" y="0px"
	 viewBox="0 0 121.9 60.4" style="enable-background:new 0 0 121.9 60.4;" xml:space="preserve">
<style type="text/css">
	.st0{fill:#101A0F;}
	.st1{fill:#21B170;}
</style>
<g>
	<path class="st0" d="M19.8,43.1c-4.2-2.1-7.1-1.9-9.2,0.7c-1.7,2.1-1.6,5.4,0.1,7.5c2.1,2.5,5.1,2.7,8.9,0.6
		c0.2,0.2,0.1,0.4,0.1,0.6c0,2,0,4,0,5.9c0,0.5-0.1,0.8-0.6,1c-6.8,2.9-17-0.1-18.7-9.9C-0.7,42.1,4.7,35.3,12,34.5
		c2.4-0.3,4.7-0.1,7,0.9c0.6,0.2,0.8,0.5,0.8,1.2C19.8,38.7,19.8,40.8,19.8,43.1z"/>
	<path class="st0" d="M29.8,20.1c0,0.3,0,0.6,0,0.8c0,12.6,0,25.1,0,37.7c0,0.7-0.1,1-0.9,0.9c-2.1-0.1-4.2,0-6.3,0
		c-0.6,0-0.8-0.1-0.8-0.7c0-10,0-20,0-30c0-0.5,0.2-0.7,0.6-0.9c1.9-0.8,3.4-2.1,4.9-3.5C28.6,23.3,29.3,21.8,29.8,20.1z"/>
	<path class="st1" d="M28.4,11.4c-0.3-5-4-9.6-8.8-10.9c-4-1.1-7.8-0.7-10.7,2.6c0,0-0.1,0-0.2,0c0-0.5,0-1.1,0-1.6
		c0.1-0.6-0.1-0.8-0.8-0.8c-2.6,0-5.3,0-7.9,0C0,13,0,25.3,0,37.6c2-2.9,4.7-5,8.2-5.9c0.5-0.1,0.4-0.4,0.4-0.7c0-2,0-3.9,0-5.9
		c0-0.7,0-1.4,0-2.2c0.9,0.8,1.7,1.5,2.6,1.9c4.8,2.4,10.8,1,14.4-3.3C28.1,18.6,28.7,15.1,28.4,11.4z M13.9,18.5
		c-3.1,0-5.5-2.5-5.5-5.6c0-3.2,2.4-5.5,5.6-5.5c3.1,0,5.4,2.4,5.4,5.5C19.4,16.1,17,18.5,13.9,18.5z"/>
	<path class="st0" d="M90.7,34.4c0-1.8,0-3.5,0-5.3c-0.3-0.3-0.7-0.3-1-0.3c-2.2,0-4.3,0-6.5,0c-0.4,0-0.8,0-1.1,0.3
		c0,0,0,0.1,0,0.1c0,6.3,0,12.7,0,19c0,0.3,0,0.6,0,0.8c-0.1,2.7-1.8,4.2-4.6,4.1c-2.3-0.1-4.1-2.2-4.1-4.5c0-6.2,0-12.3,0-18.5
		c0-0.3,0-0.7,0-1c0,0,0-0.1,0-0.1c0,0,0,0,0,0c-0.2-0.1-0.5-0.2-0.7-0.2c-2.3,0-4.7,0-7,0c-0.3,0-0.7,0.1-0.9,0.4
		c0,7.3,0,14.5,0,21.8c0,3.7,1.9,6.3,5.3,7.9c1.2,0.5,3.6,1.1,3.8,1.1c2,0.3,3.8,0.5,6.3,0.3c2.5-0.3,4-1,4.1-1
		c4.7-1.8,6.5-4.6,6.4-9.7C90.6,44.6,90.6,39.5,90.7,34.4z"/>
	<path class="st1" d="M90.7,8.8c0-1.8-0.5-3.5-1.5-5c-1.6-2.3-3.9-3.3-6.6-3.5c-3.4-0.3-6.6,0.3-8.9,3.1c-0.1,0.1-0.2,0.2-0.3,0.1
		c0-0.7,0-1.4,0-2.1c0-0.5-0.2-0.7-0.7-0.7c-2.4,0-4.9,0-7.3,0c-0.5,0-0.7,0.1-0.7,0.7c0,9.3,0,18.5,0,27.8c0.3,0,0.7-0.1,1-0.1
		c2.5,0,5.1,0,7.6,0c0-3.2,0-6.3,0-9.5c0-2.6,0-5.3,0-7.9c0-3.2,2.6-5.2,5.7-4.6c1.6,0.3,2.5,1.3,2.7,3.1c0.1,0.8,0.2,1.6,0.2,2.4
		c0,5.5,0,11.1,0,16.6c0,0,0,0,0,0c0.3,0,0.7-0.1,1-0.1c2.5,0,5.1,0,7.6,0c0-0.1,0-0.2,0-0.3C90.7,22.2,90.7,15.5,90.7,8.8z"/>
	<path class="st0" d="M121.9,28.6c0-0.6-0.2-0.8-0.8-0.8c-2.3,0-4.6,0-7,0c-0.8,0-1,0.2-1,1c0,2.8,0,5.6,0,8.7
		c-0.3-0.2-0.4-0.3-0.5-0.4c-2.8-2.6-6-3.1-9.6-2.4c-5.1,1-8.9,5.2-9.6,10.3c-0.7,5.3,0.6,9.8,5.1,13.1c4.5,3.3,11.5,2.9,14.3-0.9
		c0,0,0.1,0,0.2,0c0,0.6,0,1.1,0,1.7c0,0.5,0.2,0.7,0.7,0.7c2.4,0,4.8,0,7.2,0c0.6,0,0.8-0.2,0.8-0.8
		C121.9,48.8,121.9,38.7,121.9,28.6z M107.9,53c-3.1,0-5.5-2.5-5.5-5.6c0-3.1,2.5-5.5,5.7-5.4c3,0,5.5,2.6,5.4,5.6
		C113.5,50.6,111.1,53,107.9,53z"/>
	<path class="st1" d="M60.8,2c0-0.3,0-0.5,0-0.8c0-0.4-0.1-0.5-0.5-0.5c-2.6,0-5.1,0-7.7,0c-0.4,0-0.5,0.1-0.5,0.5
		c0,0.6,0,1.1,0,1.9c-1-1-2-1.8-3.1-2.2C44.3-1,38.7,0.3,35.4,4.1c-3,3.4-3.7,7.5-2.9,11.8c1.1,6.4,7.5,10.9,13.9,9.9
		c2.2-0.3,4.1-1.3,5.7-3.3c0,1.1,0,1.9,0,2.7c0,0.6,0.2,0.7,0.7,0.7c2.4,0,4.8,0,7.1,0c0.7,0,0.8-0.2,0.8-0.8
		C60.8,17.4,60.8,9.7,60.8,2z M46.8,18.5c-3,0-5.5-2.4-5.5-5.4c0-3.1,2.4-5.5,5.5-5.5c3.1,0,5.5,2.4,5.6,5.4
		C52.4,16,49.9,18.5,46.8,18.5z"/>
	<path class="st1" d="M121.9,1.4c0-0.4-0.1-0.7-0.6-0.7c-2.5,0-5,0-7.5,0c-0.4,0-0.6,0.1-0.6,0.6c0,0.5,0,1,0,1.7
		c-0.5-0.4-0.8-0.7-1.1-1c-3.4-2.7-9-2.8-12.9-0.2c-4.1,2.7-5.9,6.6-5.8,11.5c0.1,6.7,4.8,12,11.4,12.5c3.1,0.3,5.9-0.5,8.1-2.9
		c0.1-0.1,0.1-0.2,0.4-0.1c0,0.5,0,1.1,0,1.6c0,0.5,0.1,0.7,0.7,0.7c2.5,0,4.9,0,7.4,0c0.5,0,0.6-0.1,0.6-0.6
		C121.9,16.9,121.9,9.1,121.9,1.4z M107.8,18.5c-3.2-0.1-5.5-2.6-5.4-5.8c0.1-3,2.7-5.3,5.8-5.2c3,0.1,5.4,2.7,5.2,5.7
		C113.4,16.3,110.9,18.6,107.8,18.5z"/>
	<path class="st0" d="M54.7,34.6c-3-1.7-6.2-1.8-9.6-1.5C35.2,34,29.7,43.9,34,53c1.5,3.1,4,5.1,7.1,6.4c2.4,0.8,4.9,1,7.5,1
		c2.7-0.1,4.4-0.8,4.5-0.9c5.4-2.1,8.4-6,8.9-11.7C62.3,41.9,59.9,37.4,54.7,34.6z M47.3,52.6c-3.1,0-5.7-2.7-5.7-6
		c0-3.3,2.6-5.9,5.7-5.9c3.1,0,5.6,2.7,5.6,6C52.9,50,50.4,52.6,47.3,52.6z"/>
</g>
</svg>
